<svg width="82" height="46" viewBox="0 0 82 46" fill="none" xmlns="http://www.w3.org/2000/svg">
<g id="player-vs-player">
<circle id="Oval Copy 17" cx="59" cy="23" r="23" fill="black"/>
<circle id="Oval Copy 11" cx="59" cy="23" r="20" fill="#FFCE67"/>
<g id="Group 8">
<path id="Oval Copy 11_2" d="M74.5835 21.2084C74.5835 27.5596 69.4348 32.7084 63.0835 32.7084C56.7322 32.7084 51.5835 27.5596 51.5835 21.2084H54.5835C54.5835 25.9028 58.3891 29.7084 63.0835 29.7084C67.7779 29.7084 71.5835 25.9028 71.5835 21.2084H74.5835Z" fill="black"/>
<g id="Group 7">
<path id="Path" d="M62.375 14.6667V19.6537H59.375V14.6667H62.375Z" fill="black"/>
<path id="Path Copy" d="M70.7085 14.6667V19.6537H67.7085V14.6667H70.7085Z" fill="black"/>
</g>
</g>
<circle id="Oval Copy 18" cx="23" cy="23" r="23" fill="black"/>
<g id="Group 2">
<circle id="Oval Copy 11_3" cx="23" cy="23" r="20" fill="#FFCE67"/>
<g id="Group 8_2">
<path id="Oval Copy 11_4" d="M38.5835 21.2084C38.5835 27.5596 33.4348 32.7084 27.0835 32.7084C20.7322 32.7084 15.5835 27.5596 15.5835 21.2084H18.5835C18.5835 25.9028 22.3891 29.7084 27.0835 29.7084C31.7779 29.7084 35.5835 25.9028 35.5835 21.2084H38.5835Z" fill="black"/>
<g id="Group 7_2">
<path id="Path_2" d="M26.375 14.6667V19.6537H23.375V14.6667H26.375Z" fill="black"/>
<path id="Path Copy_2" d="M34.7085 14.6667V19.6537H31.7085V14.6667H34.7085Z" fill="black"/>
</g>
</g>
</g>
</g>
</svg>
